<?xml version="1.0" standalone="no"?>
<!DOCTYPE svg PUBLIC "-//W3C//DTD SVG 1.1//EN" "http://www.w3.org/Graphics/SVG/1.1/DTD/svg11.dtd" >
<svg xmlns="http://www.w3.org/2000/svg">
<metadata>Generated by IcoMoon</metadata>
<defs>
<font id="icomoon" horiz-adv-x="1024">
<font-face units-per-em="1024" ascent="960" descent="-64" />
<missing-glyph horiz-adv-x="1024" />
<glyph unicode="&#x20;" horiz-adv-x="512" d="" />
<glyph unicode="&#xe000;" glyph-name="uniE000" d="M819.2 499.2h-614.4c-28.262 0-51.2-22.938-51.2-51.2s22.938-51.2 51.2-51.2h614.4c28.314 0 51.2 22.938 51.2 51.2s-22.886 51.2-51.2 51.2zM204.8 601.6h614.4c28.314 0 51.2 22.938 51.2 51.2s-22.886 51.2-51.2 51.2h-614.4c-28.262 0-51.2-22.938-51.2-51.2s22.938-51.2 51.2-51.2zM819.2 294.4h-614.4c-28.262 0-51.2-22.886-51.2-51.2s22.938-51.2 51.2-51.2h614.4c28.314 0 51.2 22.886 51.2 51.2s-22.886 51.2-51.2 51.2z" />
<glyph unicode="&#xe001;" glyph-name="uniE001" d="M369.818 403.456h286.72v92.16h-286.72v-92.16zM768 908.8h-512c-56.32 0-102.4-46.080-102.4-102.4v-716.8c0-56.32 46.080-102.4 102.4-102.4h512c56.32 0 102.4 46.080 102.4 102.4v716.8c0 56.32-46.080 102.4-102.4 102.4zM768 89.6h-512v716.8h512v-716.8zM655.36 695.346h-286.72v-89.6h286.72v89.6zM655.36 293.376h-286.72v-89.6h286.72v89.6z" />
<glyph unicode="&#xe002;" glyph-name="uniE002" d="M778.24 448c0-147.046-119.246-266.24-266.24-266.24-147.046 0-266.24 119.194-266.24 266.24 0 17.51 1.742 34.61 5.018 51.2h-179.098v-353.894c0-75.98 61.542-137.626 137.626-137.626h605.388c75.98 0 137.626 61.594 137.626 137.626v353.894h-179.046c3.226-16.588 4.966-33.69 4.966-51.2zM814.694 888.32h-605.39c-76.032 0-137.626-61.644-137.626-137.626v-149.094h222.924c48.178 68.096 127.59 112.64 217.394 112.64s169.216-44.544 217.394-112.64h222.926v149.094c0 75.98-61.644 137.626-137.626 137.626zM882.022 718.336c0-13.568-11.058-24.576-24.576-24.576h-73.678c-13.518 0-24.576 11.058-24.576 24.576v73.728c0 13.568 11.11 24.576 24.576 24.576h73.678c13.568 0 24.576-11.060 24.576-24.576v-73.728zM675.84 448c0 90.522-73.37 163.84-163.84 163.84s-163.84-73.318-163.84-163.84 73.37-163.84 163.84-163.84 163.84 73.318 163.84 163.84z" />
<glyph unicode="&#xe003;" glyph-name="uniE003" d="M983.040 740.198c-34.714-15.41-71.936-25.754-111.052-30.464 39.936 23.91 70.606 61.798 84.992 106.906-37.326-22.118-78.694-38.246-122.674-46.9-35.278 37.582-85.504 61.030-141.106 61.030-106.752 0-193.28-86.528-193.28-193.228 0-15.154 1.69-29.9 5.018-44.032-160.614 8.038-303.052 84.992-398.336 201.932-16.692-28.518-26.266-61.746-26.266-97.178 0-67.072 34.15-126.208 86.016-160.87-31.694 1.024-61.49 9.678-87.552 24.166 0-0.82 0-1.586 0-2.406 0-93.644 66.662-171.724 155.034-189.542-16.18-4.404-33.28-6.758-50.944-6.758-12.442 0-24.526 1.178-36.352 3.43 24.576-76.8 96-132.658 180.53-134.196-66.15-51.866-149.454-82.74-240.026-82.74-15.616 0-30.976 0.922-46.080 2.714 85.504-54.836 187.084-86.836 296.294-86.836 355.482 0 549.888 294.502 549.888 549.938 0 8.346-0.154 16.692-0.562 24.986 37.786 27.238 70.502 61.286 96.462 100.044z" />
<glyph unicode="&#xe004;" glyph-name="uniE004" d="M489.728 580.046c-69.53 123.648-143.872 224.41-149.35 231.782-112.18-52.992-195.942-156.314-222.002-280.882 10.546-0.206 178.176-2.202 371.354 49.1zM539.852 444.928c5.326 1.69 10.548 3.226 15.924 4.762-10.086 22.886-21.146 45.774-32.666 68.352-207.154-61.952-405.964-57.498-413.030-57.294-0.154-4.25-0.308-8.448-0.308-12.75 0-103.476 39.118-197.682 103.218-268.954-0.102 0.102-0.306 0.358-0.306 0.358s110.132 195.278 327.168 265.524zM264.754 130.918l0.102 0.154c-3.022 2.356-6.194 4.454-9.114 6.912 5.326-4.302 9.010-7.066 9.010-7.066zM415.642 838.554c-0.358-0.102-0.716-0.154-1.024-0.256 0.562 0.154 0.974 0.206 1.024 0.256v0zM777.678 749.876c-70.86 62.414-163.788 100.352-265.626 100.352-32.716 0-64.41-3.994-94.822-11.366 6.094-8.090 81.612-108.442 150.426-234.65 151.654 56.884 208.998 144.026 210.022 145.664zM512.052-23.040c-260.198 0-471.092 210.894-471.092 471.040s210.894 471.040 471.092 471.040c260.148 0 470.988-210.894 470.988-471.040s-210.842-471.040-470.99-471.040zM580.454 382.208c-236.082-82.278-314.060-247.756-315.596-251.136 68.198-53.298 153.908-85.298 247.194-85.298 55.706 0 108.75 11.316 156.98 31.794-5.938 35.278-29.338 158.514-85.914 305.562-0.87-0.358-1.792-0.614-2.662-0.922zM598.528 544.308c9.422-19.2 18.38-38.656 26.726-58.368 3.020-6.964 5.836-13.876 8.704-20.786 138.956 17.46 275.712-12.186 280.166-13.158-0.922 95.438-35.020 182.99-91.442 251.494-0.818-1.178-65.332-94.362-224.154-159.182zM658.482 401.664c52.838-145.152 74.24-263.27 78.284-287.334 90.368 60.98 154.522 157.696 172.39 269.876-7.936 2.61-120.626 38.298-250.674 17.458z" />
<glyph unicode="&#xe005;" glyph-name="uniE005" d="M153.6 560.64c-62.208 0-112.64-50.432-112.64-112.64s50.432-112.64 112.64-112.64 112.64 50.432 112.64 112.64c0 62.208-50.432 112.64-112.64 112.64zM512 560.64c-62.208 0-112.64-50.432-112.64-112.64s50.432-112.64 112.64-112.64 112.588 50.432 112.588 112.64c0 62.208-50.38 112.64-112.588 112.64zM870.4 560.64c-62.208 0-112.64-50.432-112.64-112.64s50.432-112.64 112.64-112.64 112.64 50.432 112.64 112.64c0 62.208-50.432 112.64-112.64 112.64z" />
<glyph unicode="&#xe006;" glyph-name="uniE006" d="M332.8 560.64c-62.208 0-112.64-50.432-112.64-112.64s50.432-112.64 112.64-112.64 112.64 50.432 112.64 112.64-50.432 112.64-112.64 112.64zM691.2 560.64c-62.208 0-112.64-50.432-112.64-112.64s50.432-112.64 112.64-112.64 112.64 50.432 112.64 112.64-50.432 112.64-112.64 112.64z" />
<glyph unicode="&#xe007;" glyph-name="uniE007" d="M645.12 908.8h-276.48c-28.314 0-40.96-22.938-40.96-51.2v-870.4l184.32 184.32 184.32-184.32v870.4c0 28.262-22.938 51.2-51.2 51.2z" />
<glyph unicode="&#xe008;" glyph-name="uniE008" d="M742.4 960h-215.040c-28.262 0-40.96-22.938-40.96-51.2h102.4c28.314 0 51.2-22.938 51.2-51.2v-634.88l153.6-184.32v870.4c0 28.262-22.886 51.2-51.2 51.2zM486.4 806.4h-215.040c-28.262 0-40.96-22.938-40.96-51.2v-819.2l153.6 184.32 153.6-184.32v819.2c0 28.262-22.886 51.2-51.2 51.2z" />
<glyph unicode="&#xe009;" glyph-name="uniE009" d="M942.080 857.6h-860.16c-16.948 0-30.72-13.774-30.72-30.72v-122.88h921.6v122.88c0 16.948-13.774 30.72-30.72 30.72zM102.4 110.080c0-39.424 32.256-71.68 71.68-71.68h675.84c39.476 0 71.68 32.256 71.68 71.68v542.72h-819.2v-542.72zM358.4 550.4h307.2v-102.4h-307.2v102.4z" />
<glyph unicode="&#xe00a;" glyph-name="uniE00A" d="M798.72 857.6l-61.44-153.6h-450.56l-61.44 153.6c-39.424 0-71.68-32.256-71.68-71.68v-778.24c0-39.424 32.256-71.68 71.68-71.68h573.44c39.476 0 71.68 32.256 71.68 71.68v778.24c0 39.424-32.256 71.68-71.68 71.68zM696.32 755.2l46.080 102.4h-111.616l-36.864 102.4h-163.84l-36.864-102.4h-111.616l46.080-102.4h368.64z" />
<glyph unicode="&#xe00b;" glyph-name="uniE00B" horiz-adv-x="768" d="M0 960h256v-1024h-256zM512 960h256v-1024h-256z" />
<glyph unicode="&#xe00c;" glyph-name="uniE00C" d="M990.158 471.398c-20.122 21.35-116.942 116.326-161.23 159.692-13.62 13.262-33.076 21.708-53.402 21.708-20.274 0-263.476 0-263.476 0s-243.2 0-263.526 0-39.834-8.5-53.402-21.76c-44.288-43.366-141.21-138.342-161.28-159.692-25.036-26.624-38.758-47.872-32.204-74.188l28.722-157.39c6.502-26.318 35.328-47.872 64.052-47.872h835.174c28.722 0 57.548 21.554 64.052 47.872l28.774 157.39c6.502 26.318-7.22 47.616-32.256 74.24zM719.258 437.298c-5.222 0-9.882-2.662-12.236-6.81l-41.83-104.242h-306.33l-41.83 104.242c-2.304 4.148-7.066 6.81-12.238 6.81h-181.504l104.498 118.222h568.526l104.448-118.222h-181.504z" />
<glyph unicode="&#xe00d;" glyph-name="uniE00D" d="M576 896c247.424 0 448-200.576 448-448s-200.576-448-448-448v96c94.024 0 182.418 36.614 248.902 103.098 66.482 66.486 103.098 154.878 103.098 248.902 0 94.022-36.614 182.418-103.098 248.902-66.486 66.482-154.878 103.098-248.902 103.098-94.022 0-182.418-36.614-248.902-103.098-51.14-51.138-84.582-115.246-97.306-184.902h186.208l-224-256-224 256h164.57c31.062 217.102 217.738 384 443.43 384zM768 512v-128h-256v320h128v-192z" />
<glyph unicode="&#xe00e;" glyph-name="uniE00E" d="M254.002-64c-68.404 0-132.454 28.98-178.74 75.316-89.6 89.6-114.638 246.068 11.008 371.712 73.678 73.574 368.588 368.486 515.788 515.686 52.274 52.274 118.732 72.448 182.426 55.346 62.514-16.692 113.818-67.942 130.56-130.508 17.050-63.692-3.174-130.202-55.398-182.426l-493.158-493.21c-28.16-28.16-59.954-44.85-91.954-48.178-31.642-3.328-61.85 6.86-83.046 28.006-38.4 38.35-43.826 110.54 19.968 174.284l346.368 346.47c14.234 14.182 37.326 14.182 51.558 0 14.234-14.234 14.234-37.324 0-51.558l-346.418-346.418c-29.952-29.952-32.716-58.572-19.968-71.322 5.58-5.53 14.080-8.090 23.86-7.066 15.002 1.586 32.102 11.316 48.076 27.29l493.158 493.158c33.842 33.844 46.798 73.626 36.506 112.076-10.138 37.836-41.164 68.864-79.002 79.002-38.452 10.292-78.234-2.714-112.076-36.506-147.15-147.2-442.060-442.112-515.686-515.686-96.052-96.052-73.062-206.592-11.058-268.646 62.054-62.004 172.594-85.044 268.698 11.058l515.738 515.686c14.182 14.234 37.326 14.234 51.506 0 14.234-14.234 14.234-37.324 0-51.506l-515.738-515.738c-60.774-60.826-128.768-86.324-192.974-86.324z" />
<glyph unicode="&#xe00f;" glyph-name="uniE00F" d="M217.806-51.814c15.668 51.25 39.424 123.442 71.218 227.89 138.548 22.374 195.89-17.87 283.904 142.54-71.424-22.322-157.542 41.422-152.884 69.018 4.608 27.648 200.346-19.918 328.448 165.786-161.486-36.302-213.198 43.674-192.358 55.756 48.076 27.904 190.822 11.572 266.906 87.194 39.22 38.912 57.548 133.58 41.626 167.372-19.2 40.754-136.038 101.582-200.448 95.898-64.41-5.734-165.428-250.318-195.38-248.372s-35.942 109.518 16.332 209.562c-55.142-24.884-156.16-102.35-187.854-168.55-59.034-123.188 5.53-405.658-15.154-415.744-20.736-10.034-90.418 129.69-111.206 193.024-28.416-97.076-29.082-194.356 53.966-323.584-31.334-84.788-48.436-182.374-51.046-231.986-1.23-39.732 37.018-48.23 43.93-25.804z" />
<glyph unicode="&#xe010;" glyph-name="uniE010" d="M847.924 783.974c-73.83 73.882-129.28 62.822-129.28 62.822l-554.292-554.292-51.712-243.866 243.866 51.712 554.24 554.24c0 0 11.11 55.45-62.822 129.382zM341.964 129.69l-83.098-17.92c-8.038 15.002-17.716 30.004-35.378 47.718-17.664 17.664-32.718 27.29-47.718 35.328l17.972 83.15 24.014 24.014c0 0 45.26-0.922 96.306-51.968 51.098-51.098 52.020-96.358 52.020-96.358l-24.116-23.962z" />
<glyph unicode="&#xe011;" glyph-name="uniE011" d="M505.446 939.47c-271.462-3.634-488.55-226.612-484.916-498.022 3.634-271.462 226.61-488.55 498.074-484.966 271.412 3.686 488.55 226.61 484.914 498.074-3.738 271.462-226.714 488.55-498.074 484.916zM517.172 60.006c-214.272-2.918-390.298 168.5-393.216 382.822-2.816 214.272 168.55 390.298 382.874 393.164 214.272 2.868 390.298-168.498 393.166-382.822s-168.5-390.246-382.822-393.166zM279.194 217.394c0 0 233.932 32.102 333.722 131.89s131.89 333.722 131.89 333.722-233.882-32.154-333.67-131.89c-99.788-99.84-131.942-333.722-131.942-333.722zM461.568 500.634c41.932 41.984 122.112 71.73 190.924 90.214-18.482-68.658-48.384-149.452-90.062-191.078-27.852-27.852-73.010-27.852-100.864 0-27.904 27.852-27.904 73.010 0 100.864z" />
<glyph unicode="&#xe012;" glyph-name="uniE012" d="M1007.77 702.77l-239.308 149.862c-10.598 6.656-23.86 6.656-34.458 0l-222.004-139.058-222.002 139.008c-10.598 6.656-23.858 6.656-34.458 0l-239.308-149.812c-10.036-6.298-16.23-17.714-16.23-29.952v-599.398c0-12.596 6.45-24.27 16.998-30.464s23.398-6.042 33.74 0.462l222.002 139.058 222.002-139.058c10.598-6.656 23.86-6.656 34.51 0l222.004 139.058 222.002-139.058c5.274-3.328 11.264-5.018 17.254-5.018 5.682 0 11.366 1.536 16.486 4.558 10.496 6.196 16.998 17.87 16.998 30.464v599.398c0 12.236-6.196 23.654-16.23 29.952zM239.258 243.046l-172.288-107.878v517.836l172.288 107.878v-517.836zM478.514 135.168l-172.288 107.878v517.836l172.288-107.878v-517.836zM717.774 243.046l-172.236-107.878v517.836l172.236 107.878v-517.836zM956.98 135.168l-172.236 107.878v517.836l172.236-107.878v-517.836z" />
<glyph unicode="&#xe013;" glyph-name="uniE013" d="M512 857.6c-141.414 0-256-114.638-256-256 0-244.428 256-563.2 256-563.2s256 318.772 256 563.2c0 141.362-114.586 256-256 256zM512 460.288c-76.338 0-138.24 61.902-138.24 138.24s61.902 138.24 138.24 138.24 138.24-61.902 138.24-138.24-61.9-138.24-138.24-138.24z" />
<glyph unicode="&#xe014;" glyph-name="uniE014" d="M768 151.040h-665.6v460.8h132.864c0 0 35.278 45.876 111.104 102.4h-295.168c-28.262 0-51.2-22.938-51.2-51.2v-563.2c0-28.314 22.938-51.2 51.2-51.2h768c28.314 0 51.2 22.886 51.2 51.2v191.794l-102.4-84.224v-56.37zM684.134 506.88v-181.76l339.866 266.292-339.866 255.948v-160.256c-412.774-0.050-412.774-408.064-412.774-408.064 116.838 191.898 188.724 227.84 412.774 227.84z" />
<glyph unicode="&#xe015;" glyph-name="uniE015" d="M881.818 600.116c-81.050 188.672-211.558 332.338-277.556 305.46-112.076-45.568 66.816-264.398-483.634-488.142-47.564-19.302-59.598-96.666-39.68-142.9 19.866-46.234 84.89-92.262 132.454-72.96 8.192 3.328 38.45 13.056 38.45 13.056 33.946-45.568 69.478-18.534 82.126-47.514 15.154-34.816 48.076-110.438 59.238-136.14 11.264-25.702 36.658-49.562 55.092-42.548 18.33 7.014 80.946 30.874 104.91 39.936s29.696 30.464 22.374 47.308c-7.884 18.126-40.244 23.45-49.458 44.646-9.268 21.198-39.424 89.038-48.076 110.438-11.776 29.082 13.262 52.736 49.664 56.524 250.572 26.112 297.422-128.666 382.72-93.952 65.842 26.932 52.428 218.112-28.62 406.784zM853.606 294.092c-14.644-5.938-113.254 71.782-176.282 218.47-62.976 146.638-55.040 280.678-40.448 286.618 14.644 5.99 110.848-87.86 173.876-234.496 62.924-146.586 57.498-264.654 42.854-270.592z" />
<glyph unicode="&#xe016;" glyph-name="uniE016" d="M987.698 939.212c-5.53 16.128-22.99 24.628-38.962 19.046s-24.37-23.246-18.79-39.424c47.104-136.704-46.388-238.798-117.606-293.428l-28.826 41.678c-9.626 13.926-31.334 25.548-48.128 25.804l-161.536-0.768c-16.794 0.256-41.778-7.526-55.602-17.254l-475.954-337.306c-23.040-16.332-28.722-48.486-12.544-71.834l216.372-312.678c16.128-23.348 42.086-20.532 65.126-4.25l475.956 337.358c13.824 9.728 29.542 30.924 35.124 47.002l50.586 161.074c5.478 16.076 2.15 40.654-7.476 54.58l-17.612 25.394c95.692 73.984 195.020 204.902 139.878 365.004zM766.26 460.186c-36.914-26.162-87.758-17.050-113.614 20.274-25.804 37.324-16.846 88.782 20.070 114.944 29.286 20.788 67.328 19.25 94.72-0.922-13.824-8.396-23.246-13.21-25.038-14.080-15.258-7.27-21.812-25.702-14.592-41.166 5.222-11.214 16.178-17.818 27.698-17.818 4.352 0 8.806 0.974 13.004 2.97 9.778 4.658 20.378 10.342 31.386 16.948 4.914-30.362-7.066-62.31-33.638-81.152z" />
<glyph unicode="&#xe017;" glyph-name="uniE017" d="M160.462 607.232c47.82 37.12 87.45 11.572 140.338-49.664 5.99-6.86 13.978 1.178 18.484 5.12 4.506 3.994 74.342 66.764 77.722 69.682 3.43 3.020 7.526 8.654 2.098 14.95s-25.294 32-38.042 48.64c-92.57 121.088 253.236 203.212 200.090 204.492-26.982 0.718-135.476 1.946-151.654 0.256-65.69-6.962-148.174-68.352-189.696-96.922-54.272-37.326-74.598-58.982-77.926-62.002-15.36-13.466-2.458-44.39-30.31-68.814-29.44-25.804-47.77-6.298-64.82-21.248-8.5-7.476-32.102-25.14-38.912-31.13-6.758-5.94-7.988-16.026-1.076-24.116 0 0 64.666-71.476 70.144-77.774 5.428-6.298 20.018-11.622 29.082-3.634 9.062 7.936 32.308 28.366 36.25 31.846 3.994 3.43-2.56 44.186 18.228 60.314zM452.762 580.812c-6.144 7.118-13.722 7.27-20.326 1.434l-73.472-64.052c-5.734-5.12-6.502-14.54-1.332-20.48l424.654-483.226c9.882-11.47 27.086-12.646 38.502-2.714l49.716 41.574c11.316 9.932 12.494 27.342 2.61 38.758l-420.352 488.704zM1018.982 786.482c-3.788 25.294-16.896 19.968-23.706 9.216-6.706-10.702-36.914-56.372-49.306-77.006-12.288-20.582-42.496-60.978-99.020-21.094-58.778 41.574-38.298 70.606-28.11 90.112 10.292 19.61 41.882 74.496 46.49 81.408 4.506 6.912-0.818 26.982-18.996 18.586-18.278-8.448-129.178-52.532-144.59-115.712-15.718-64.358 13.21-121.804-43.52-178.894l-68.71-71.68 69.018-80.282 84.684 80.436c20.224 20.274 63.284 39.986 102.298 31.13 83.61-18.944 129.178 12.494 156.722 64.358 24.678 46.438 20.582 144.128 16.742 169.42zM140.288 86.99c-10.65-10.752-10.65-28.16 0-38.86l48.692-47.616c10.65-10.702 27.546-6.196 38.194 4.506l251.238 247.040-77.004 87.706-261.12-252.774z" />
<glyph unicode="&#xe018;" glyph-name="uniE018" d="M859.392 448c0 53.658 33.024 96 82.688 125.082-9.010 29.9-20.788 58.624-35.38 85.606-55.808-14.592-100.914 7.27-138.802 45.158-37.99 37.938-49.612 83.098-35.020 138.802-26.982 14.592-55.602 26.522-85.606 35.43-29.082-49.714-81.664-82.738-135.27-82.738s-106.138 33.024-135.27 82.738c-30.002-8.908-58.624-20.838-85.606-35.378 14.54-55.758 2.97-100.914-34.97-138.854-37.938-37.888-83.098-59.75-138.802-45.21-14.592-26.93-26.47-55.654-35.43-85.554 49.716-29.082 82.74-71.424 82.74-125.082 0-53.606-33.024-106.188-82.74-135.322 8.96-29.952 20.838-58.624 35.43-85.606 55.758 14.592 100.864 2.97 138.802-34.97 37.94-37.938 49.51-83.046 34.97-138.802 26.982-14.592 55.654-26.522 85.606-35.43 29.132 49.766 81.664 82.74 135.27 82.74s106.24-33.024 135.322-82.74c30.004 8.96 58.624 20.838 85.606 35.43-14.592 55.756-3.020 100.864 35.020 138.802 37.888 37.888 82.996 59.75 138.802 45.21 14.592 26.982 26.418 55.654 35.38 85.606-49.716 29.134-82.74 71.476-82.74 125.082zM512 260.966c-103.27 0-186.982 83.764-186.982 187.034s83.712 187.034 186.982 187.034c103.322 0 187.034-83.764 187.034-187.034s-83.712-187.034-187.034-187.034z" />
<glyph unicode="&#xe019;" glyph-name="uniE019" d="M750.080 524.134c-116.736 251.238-177.408 346.674-368.178 342.682-67.942-1.382-51.61 49.202-103.424 30.004-51.764-19.15-7.322-47.258-60.314-90.726-148.582-121.958-134.912-234.804-65.996-503.808 29.082-113.254-69.99-118.836-30.822-228.658 28.622-80.026 239.564-113.612 462.132-30.976 222.566 82.534 363.008 246.426 334.386 326.554-39.168 109.774-118.578 49.152-167.782 154.932zM559.308 110.284c-198.706-73.728-362.086-30.362-368.998-11.11-11.878 33.23 64.154 144.178 291.38 228.506s354.048 53.044 367.31 15.924c7.834-21.914-90.88-159.538-289.69-233.318zM495.462 289.178c-103.936-38.554-176.128-82.638-222.874-122.368 32.922-29.9 94.514-37.172 155.956-14.386 78.182 29.030 126.208 95.642 107.212 148.736-0.206 0.666-0.562 1.23-0.818 1.842-12.8-4.148-25.958-8.754-39.476-13.824z" />
<glyph unicode="&#xe01a;" glyph-name="uniE01A" d="M402.38 207.668l-41.472-41.164c-35.942-35.584-94.362-35.634-130.252 0-17.254 17.152-26.726 39.834-26.726 64.052s9.522 46.95 26.726 64.102l152.576 151.398c31.59 31.386 91.084 77.518 134.452 34.51 19.918-19.762 52.070-19.61 71.782 0.256 19.764 19.866 19.66 52.020-0.256 71.782-73.678 73.114-182.63 59.596-277.504-34.51l-152.576-151.398c-36.558-36.352-56.73-84.686-56.73-136.14 0-51.404 20.174-99.738 56.782-136.090 37.682-37.428 87.142-56.064 136.602-56.064s99.022 18.636 136.704 56.064l41.472 41.216c19.916 19.764 20.020 51.918 0.256 71.73-19.762 19.866-51.916 19.968-71.834 0.256zM864.818 795.7c-79.154 78.54-189.798 82.79-263.116 10.086l-51.662-51.252c-19.918-19.764-20.070-51.866-0.308-71.782 19.814-19.916 51.918-20.020 71.782-0.256l51.66 51.25c37.938 37.682 87.654 22.068 120.116-10.086 17.254-17.1 26.726-39.884 26.726-64.052 0-24.218-9.524-46.95-26.726-64.052l-162.816-161.484c-74.394-73.83-109.364-39.22-124.262-24.422-19.916 19.764-52.020 19.61-71.73-0.256-19.762-19.918-19.662-52.070 0.256-71.782 34.15-33.894 73.216-50.688 114.074-50.688 50.074 0 102.962 25.19 153.242 75.11l162.764 161.486c36.608 36.302 56.78 84.634 56.78 136.038s-20.174 99.788-56.78 136.14z" />
<glyph unicode="&#xe01b;" glyph-name="uniE01B" d="M946.482 720.384c-584.090-233.83-347.494 395.52-800.512 64.204l-94.772-33.996 187.7-737.792h103.372l-91.904 361.37c404.172 338.842 240.538-369.202 718.644 325.478 11.11 16.128-3.738 28.262-22.528 20.736z" />
<glyph unicode="&#xe01c;" glyph-name="uniE01C" d="M272.384 749.876c-195.686-113.562-184.422-298.496-177.664-366.9 252.774 299.366 630.836 284.826 630.836 284.826s-535.962-183.758-693.402-552.398c-12.39-29.184 58.368-67.020 74.496-32.614 48.18 102.502 115.354 179.404 115.354 179.404 99.124-36.914 270.49-80.076 392.038 5.376 161.332 113.614 144.846 365.364 375.246 487.936 53.81 28.672-451.584 148.326-716.902-5.632z" />
<glyph unicode="&#xe01d;" glyph-name="uniE01D" d="M604.11 898.61h-82.126v-669.286c-45.414 17.51-104.192 17.766-162.15-3.328-103.834-37.786-165.734-129.74-138.24-205.312 27.546-75.622 134.042-106.24 237.876-68.454 88.218 32.102 145.92 103.27 144.486 170.24l0.154 547.328c143.206-22.528 152.986-203.622 135.834-254.414-6.554-19.25 4.966-33.638 26.624 0 154.368 240.282-162.458 346.214-162.458 483.226z" />
<glyph unicode="&#xe01e;" glyph-name="uniE01E" d="M76.8 601.498h870.4c29.184 0 24.422 31.13 9.882 36.198-14.542 5.070-176.282 66.202-204.442 66.202h-46.080v153.6h-389.12v-153.6h-46.080c-28.16 0-189.902-61.132-204.442-66.202-14.54-5.068-19.354-36.198 9.882-36.198zM957.44 545.178h-890.88c-28.16 0-56.32-33.28-56.32-61.44v-179.2c0-28.16 28.16-61.44 56.32-61.44h101.478l-45.158-256h778.24l-45.158 256h101.478c28.16 0 56.32 33.28 56.32 61.44v179.2c0 28.16-28.16 61.44-56.32 61.44zM225.28 89.498l71.68 332.8h430.080l71.63-332.8h-573.39z" />
<glyph unicode="&#xe01f;" glyph-name="uniE01F" d="M876.288 812.338c-85.812 85.76-193.486 117.146-227.788 82.842l-138.034-138.086c-20.94-20.942-39.218-91.034-30.822-161.946l-417.844-417.894c-24.78-24.73-4.71-84.992 44.85-134.554 49.562-49.614 109.876-69.632 134.604-44.902l417.844 417.844c70.962-8.398 141.056 9.882 161.946 30.822l138.086 138.086c34.304 34.304 2.918 141.978-82.842 227.788zM416.82 394.752c-19.098 19.046-12.85 56.166 13.774 82.842s63.744 32.87 82.842 13.824c18.996-19.046 12.85-56.166-13.824-82.842-26.676-26.674-63.744-32.87-82.79-13.824zM762.418 698.418c-66.458 66.458-83.15 154.112-77.26 160.052 5.938 5.938 90.164-14.234 156.672-80.692 66.458-66.458 86.374-150.886 80.64-156.622s-93.644 10.804-160.050 77.262z" />
<glyph unicode="&#xe020;" glyph-name="uniE020" d="M819.2 857.6h-410.624c-56.32 0-101.376-45.056-101.376-101.376v-410.624c0-56.32 46.080-102.4 102.4-102.4h409.6c56.32 0 102.4 46.080 102.4 102.4v409.6c0 56.32-46.080 102.4-102.4 102.4zM819.2 345.6h-409.6v409.6h409.6v-409.6zM204.8 448h-102.4v-307.2c0-56.32 46.080-102.4 102.4-102.4h307.2v102.4h-307.2v307.2z" />
<glyph unicode="&#xe021;" glyph-name="uniE021" d="M898.304 168.038l-193.486 193.486c29.184 47.974 45.978 104.192 45.978 164.454 0 174.898-151.602 326.502-326.554 326.502-174.9 0-316.724-141.824-316.724-316.722 0-174.95 151.552-326.554 326.502-326.554 58.164 0 112.64 15.77 159.488 43.162l194.51-194.56c19.098-19.046 49.92-19.046 68.914 0l48.282 48.23c18.996 19.046 12.082 43.008-6.912 62.004zM205.004 535.758c0 121.088 98.15 219.29 219.238 219.29 121.138 0 229.070-107.93 229.070-229.068s-98.15-219.29-219.29-219.29-229.018 107.93-229.018 229.068z" />
<glyph unicode="&#xe022;" glyph-name="uniE022" d="M251.7 765.286c-82.432 0-149.3-68.762-149.3-153.6s66.866-153.6 149.3-153.6c149.248 0 49.766-296.96-149.3-296.96v-71.63c355.226 0 494.438 675.788 149.3 675.788zM681.728 765.286c-82.432 0-149.298-68.762-149.298-153.6s66.866-153.6 149.298-153.6c149.248 0 49.766-296.96-149.298-296.96v-71.63c355.276 0 494.49 675.788 149.298 675.788z" />
<glyph unicode="&#xe023;" glyph-name="uniE023" d="M512 888.32c-243.15 0-440.32-197.17-440.32-440.32 0-243.2 197.17-440.32 440.32-440.32 243.2 0 440.32 197.12 440.32 440.32 0 243.15-197.12 440.32-440.32 440.32zM547.84 91.392v197.888h-71.68v-197.888c-169.318 16.794-303.924 151.45-320.768 320.768h197.888v71.68h-197.888c16.844 169.318 151.45 303.974 320.768 320.768v-197.888h71.68v197.888c169.37-16.794 303.974-151.45 320.768-320.768h-197.888v-71.68h197.888c-16.794-169.318-151.398-303.974-320.768-320.768z" />
<glyph unicode="&#xe024;" glyph-name="uniE024" d="M768 908.8h-512c-56.32 0-102.4-46.080-102.4-102.4v-716.8c0-56.32 46.080-102.4 102.4-102.4h512c56.32 0 102.4 46.080 102.4 102.4v716.8c0 56.32-46.080 102.4-102.4 102.4zM297.574 695.346h428.8v-89.6h-428.8v89.6zM726.374 203.776h-428.8v89.6h428.8v-89.6zM727.602 403.456h-428.8v92.16h428.8v-92.16z" />
<glyph unicode="&#xe025;" glyph-name="uniE025" d="M768 908.8h-512c-56.32 0-102.4-46.080-102.4-102.4v-716.8c0-56.32 46.080-102.4 102.4-102.4h512c56.32 0 102.4 46.080 102.4 102.4v716.8c0 56.32-46.080 102.4-102.4 102.4zM768 89.6h-512v716.8h512v-716.8z" />
<glyph unicode="&#xe026;" glyph-name="uniE026" d="M976.384 601.6h-928.768c-47.104 0-49.51-22.938-46.9-50.996l42.24-461.21c2.56-28.058 9.216-50.996 56.268-50.996h825.6c48.026 0 53.71 22.938 56.27 50.996l42.24 461.21c2.51 28.058 0.206 50.994-46.95 50.994zM942.284 714.24c-5.632 22.528-33.536 40.96-61.9 40.96h-348.876c-28.416 0-68.046 16.23-88.166 36.146l-30.514 30.106c-20.070 19.918-59.75 36.148-88.116 36.148h-166.706c-28.366 0-54.17-22.886-57.294-50.894l-14.95-133.428h866.866l-10.342 40.96z" />
<glyph unicode="&#xe027;" glyph-name="uniE027" d="M868.762 704c0 51.2-50.944 51.2-50.944 51.2h-611.634c0 0-50.944 0-50.944-51.2v-51.2h713.522v51.2zM715.826 857.6h-407.706c0 0-50.944 0-50.944-51.2h509.644c0 51.2-50.996 51.2-50.996 51.2zM970.65 652.8c-30.158 30.31-30.158 30.31-30.158 30.31v-81.51h-857.038v81.51c0 0 0 0-30.156-30.31s-51.762-38.452-39.578-102.45c12.032-63.744 70.554-413.44 79.206-460.75 9.574-51.918 62.31-51.2 62.31-51.2h713.524c0 0 52.736-0.716 62.31 51.2 8.704 47.308 67.174 397.004 79.258 460.75 12.134 64-9.472 72.14-39.68 102.452zM715.826 376.32c0 0 0-51.2-50.996-51.2h-305.714c-50.944 0-50.944 51.2-50.944 51.2v102.4h71.372v-81.92h264.858v81.92h71.476v-102.4z" />
<glyph unicode="&#xe028;" glyph-name="uniE028" d="M102.502 816.692v-121.242c362.802 0 656.896-294.144 656.896-656.948h121.294c0 429.774-348.416 778.188-778.188 778.188zM102.502 574.156v-121.292c228.864 0 414.412-185.498 414.412-414.362h121.19c0 295.782-239.77 535.654-535.602 535.654zM218.726 270.95c-64.154 0-116.224-52.070-116.224-116.274s52.070-116.224 116.224-116.224c64.204 0 116.274 52.020 116.274 116.224s-52.070 116.274-116.276 116.274z" />
<glyph unicode="&#xe029;" glyph-name="uniE029" d="M819.2 806.4h-614.4c-56.32 0-102.4-46.080-102.4-102.4v-358.4c0-56.32 46.080-102.4 102.4-102.4h204.8l204.8-153.6v153.6h204.8c56.32 0 102.4 46.080 102.4 102.4v358.4c0 56.32-46.080 102.4-102.4 102.4z" />
<glyph unicode="&#xe02a;" glyph-name="uniE02A" d="M296.96 335.36v317.44h-194.56c-56.32 0-102.4-46.080-102.4-102.4v-307.2c0-56.32 46.080-102.4 102.4-102.4h51.2v-153.6l153.6 153.6h256c56.32 0 102.4 46.080 102.4 102.4v93.184c-3.278-0.716-6.758-1.076-10.24-1.076h-358.4zM921.6 908.8h-460.8c-56.32 0-102.4-46.080-102.4-102.4v-409.6h358.4l153.6-153.6v153.6h51.2c56.32 0 102.4 46.080 102.4 102.4v307.2c0 56.32-46.080 102.4-102.4 102.4z" />
<glyph unicode="&#xe02b;" glyph-name="uniE02B" d="M574.924 385.076c-81.050-81.1-174.95-158.618-212.070-121.446-53.146 53.094-85.862 99.38-203.008 5.274s-27.188-156.876 24.32-208.384c59.392-59.342 280.782-3.124 499.662 215.706 218.778 218.83 275.098 440.27 215.654 499.66-51.456 51.508-114.176 141.414-208.332 24.32s-47.872-149.862 5.274-203.008c37.018-37.17-40.448-131.020-121.498-212.122z" />
<glyph unicode="&#xe02c;" glyph-name="uniE02C" d="M921.6 857.6h-819.2c-56.32 0-102.4-46.080-102.4-102.4v-614.4c0-56.32 46.080-102.4 102.4-102.4h819.2c56.37 0 102.4 46.080 102.4 102.4v614.4c0 56.32-46.028 102.4-102.4 102.4zM921.6 140.8h-819.2v614.4h819.2v-614.4zM460.8 340.48h-256v-92.16h256v92.16zM460.8 494.080h-256v-92.16h256v92.16zM460.8 647.68h-256v-92.16h256v92.16zM814.080 320c0 0-87.040 22.732-87.040 67.482 0 42.598 56.37 60.518 56.37 147.558 0 70.656-21.504 112.64-92.212 112.64s-92.16-41.932-92.16-112.64c0-87.040 56.32-104.96 56.32-147.558 0-44.75-86.99-67.482-86.99-67.482-5.172 0-5.172-71.68-5.172-71.68h256c0 0 0 71.68-5.12 71.68z" />
<glyph unicode="&#xe02d;" glyph-name="uniE02D" d="M512 550.4c-84.788 0-153.6-68.812-153.6-153.6 0-84.838 68.812-153.6 153.6-153.6 84.838 0 153.6 68.762 153.6 153.6 0 84.788-68.762 153.6-153.6 153.6zM921.6 704h-122.828c-16.896 0-35.124 13.106-40.448 29.134l-31.744 95.282c-5.428 16.076-23.602 29.184-40.5 29.184h-348.16c-16.896 0-35.122-13.108-40.396-29.134l-31.846-95.334c-5.324-16.026-23.502-29.134-40.396-29.134h-122.88c-56.32 0-102.4-46.080-102.4-102.4v-460.8c0-56.32 46.080-102.4 102.4-102.4h819.2c56.37 0 102.4 46.080 102.4 102.4v460.8c0 56.32-46.028 102.4-102.4 102.4zM512 140.8c-141.414 0-256 114.586-256 256 0 141.364 114.586 256 256 256 141.364 0 256-114.636 256-256 0-141.414-114.636-256-256-256zM885.76 530.022c-19.764 0-35.788 16.026-35.788 35.84s16.026 35.84 35.788 35.84c19.814 0 35.84-16.026 35.84-35.84s-16.026-35.84-35.84-35.84z" />
<glyph unicode="&#xe02e;" glyph-name="uniE02E" d="M204.8 89.6c0-56.524 45.876-102.4 102.4-102.4 56.576 0 102.4 45.876 102.4 102.4s-45.824 102.4-102.4 102.4c-56.526 0-102.4-45.876-102.4-102.4zM716.8 89.6c0-56.524 45.876-102.4 102.4-102.4 56.576 0 102.4 45.876 102.4 102.4s-45.824 102.4-102.4 102.4c-56.524 0-102.4-45.876-102.4-102.4zM386.406 331.674l566.732 161.894c10.802 3.122 19.662 14.848 19.662 26.112v281.6h-721.92v87.040c0 11.264-9.164 20.48-20.48 20.48h-158.72c-11.264 0-20.48-9.216-20.48-20.48v-81.92h99.482l100.762-463.718 9.728-48.282v-76.8c0-11.264 9.216-20.48 20.428-20.48h670.77c11.212 0 20.428 9.216 20.428 20.48v76.8h-575.898c-58.83 0-60.058 23.040-10.496 37.274z" />
<glyph unicode="&#xe02f;" glyph-name="uniE02F" d="M81.612 689.356c24.986-13.466 371.15-199.372 384.050-206.284 12.85-6.912 29.542-10.24 46.336-10.24 16.846 0 33.536 3.328 46.386 10.29 12.902 6.912 359.014 192.82 384 206.286 25.038 13.414 48.692 55.552 2.764 55.552h-866.254c-45.926 0-22.324-42.138 2.714-55.604zM952.986 586.956c-28.416-14.848-377.19-197.17-394.598-206.284s-29.542-10.292-46.386-10.292c-16.794 0-28.928 1.178-46.336 10.292s-366.234 191.488-394.598 206.284c-20.018 10.446-19.866-1.792-19.866-11.214 0-9.42 0-375.552 0-375.552 0-21.504 28.62-49.152 50.79-49.152h820.070c22.222 0 50.74 27.648 50.74 49.1 0 0 0 366.13 0 375.552 0 9.472 0.206 21.71-19.814 11.264z" />
<glyph unicode="&#xe030;" glyph-name="uniE030" d="M957.134 825.088c-17.562-6.194-886.836-312.474-903.936-318.514-14.54-5.12-17.818-17.664-0.512-24.524 20.532-8.242 194.354-77.876 194.354-77.876h-0.050l115.252-46.182c0 0 554.854 407.5 562.38 412.98 7.526 5.53 16.282-4.864 10.802-10.804-5.478-5.99-402.996-435.916-402.996-435.916-0.052 0-0.052 0-0.052 0l-23.142-25.804 30.67-16.486c0 0 238.080-128.154 255.028-137.318 14.848-7.986 34.202-1.332 38.502 17.152 5.068 21.812 145.664 627.814 148.788 641.23 4.096 17.562-7.476 28.262-25.088 22.068zM361.216 81.306c0-12.646 7.118-16.128 16.948-7.22 12.8 11.674 145.87 131.072 145.87 131.072l-162.816 84.274v-208.128z" />
<glyph unicode="&#xe031;" glyph-name="uniE031" d="M435.2 908.8h-46.028c-11.314 0-20.532-9.216-20.532-20.48v-194.56h-181.044c-8.448 0-18.944-1.946-28.978-5.018-10.138-3.122-19.814-7.424-26.726-12.134l-121.6-83.456c-6.86-4.71-10.292-10.906-10.292-17.152s3.43-12.442 10.292-17.152l121.6-83.456c6.912-4.71 16.588-9.012 26.726-12.134 10.034-3.072 20.532-5.018 28.978-5.018h181.044v-450.56c0-11.316 9.216-20.48 20.48-20.48h46.080c11.314 0 20.48 9.216 20.48 20.48v880.64c0 11.264-9.166 20.48-20.48 20.48zM1013.708 695.5l-121.6 83.456c-6.86 4.71-16.538 9.010-26.674 12.134-10.086 3.122-20.582 5.068-29.030 5.068h-350.002l41.012-235.52h308.992c8.448 0 18.944 1.946 29.030 5.018s19.814 7.424 26.674 12.084l121.6 83.456c6.912 4.762 10.292 10.956 10.292 17.202s-3.38 12.442-10.292 17.1z" />
<glyph unicode="&#xe032;" glyph-name="uniE032" d="M1009.614 945.664c-34.816 34.866-68.096 1.894-180.992-52.326-302.080-145.254-828.62-440.27-828.62-440.27l452.352-64.666 64.666-452.404c0 0 295.066 526.542 440.27 828.62 54.322 112.948 87.194 146.126 52.326 181.044zM901.12 829.236l-328.602-610.15-33.332 277.298 361.932 332.85z" />
<glyph unicode="&#xe033;" glyph-name="uniE033" d="M814.182 673.28c-106.444 0-223.078-59.29-302.182-149.248-79.104 89.958-195.788 149.248-302.234 149.248-101.428 0-209.766-59.188-209.766-225.28s108.338-225.23 209.766-225.28v0c106.496 0 223.13 59.29 302.234 149.248 79.104-89.958 195.738-149.248 302.182-149.248 101.478 0 209.818 59.188 209.818 225.28s-108.338 225.28-209.818 225.28zM209.766 312.832c-77.414 0-116.686 45.466-116.686 135.168s39.27 135.22 116.686 135.22c85.606 0 185.038-55.604 246.066-135.22-61.030-79.616-160.41-135.168-246.068-135.168zM814.182 312.832c-85.606 0-185.038 55.552-246.068 135.168 60.98 79.616 160.462 135.22 246.068 135.22 77.466 0 116.684-45.518 116.684-135.22s-39.22-135.168-116.684-135.168z" />
<glyph unicode="&#xe034;" glyph-name="uniE034" d="M367.872-21.504c40.396-26.112 87.194-43.776 144.128-42.394 56.934-1.382 103.68 16.282 144.076 42.394v105.984h-288.204v-105.984zM650.034 145.972c0 223.028 237.106 294.4 219.342 516.558-11.162 140.186-106.138 297.472-357.376 297.472s-346.214-157.286-357.376-297.472c-17.766-222.208 219.29-293.53 219.29-516.558h276.122zM263.066 654.438c10.65 133.068 101.17 200.55 248.934 200.55s238.284-67.482 248.884-200.55c5.786-72.858-36.096-121.446-92.672-201.010-41.626-58.674-90.88-127.948-113.92-218.164h-84.634c-23.040 90.214-72.242 159.438-113.972 218.164-56.524 79.616-98.406 128.154-92.62 201.010z" />
<glyph unicode="&#xe035;" glyph-name="uniE035" d="M921.6 806.4h-819.2c-56.32 0-102.4-46.080-102.4-102.4v-512c0-56.32 46.080-102.4 102.4-102.4h819.2c56.32 0 102.4 46.080 102.4 102.4v512c0 56.32-46.080 102.4-102.4 102.4zM921.6 192h-819.2v307.2h819.2v-307.2zM921.6 652.8h-819.2v51.2h819.2v-51.2zM204.8 391.68v-30.72h30.72v30.72h-30.72zM389.12 330.24v-30.72h61.44v30.72h30.72v30.72h30.72v30.72h-61.44v-30.72h-30.72v-30.72h-30.72zM512 299.52v30.72h-30.72v-30.72h30.72zM358.4 299.52v30.72h-61.44v-30.72h61.44zM389.12 360.96h30.72v30.72h-61.44v-61.44h30.72v30.72zM266.24 330.24h30.72v30.72h30.72v30.72h-61.44v-30.72h-30.72v-30.72h-30.72v-30.72h61.44v30.72z" />
<glyph unicode="&#xe036;" glyph-name="uniE036" d="M955.956 343.654c6.81 31.948 10.394 65.126 10.394 99.226 0 255.284-201.164 462.284-449.332 462.284-26.164 0-51.866-2.354-76.8-6.758-40.242 26.010-87.706 41.114-138.7 41.114-143.872 0-260.558-120.064-260.558-268.134 0-49.458 13.106-95.794 35.84-135.578-5.938-30.002-9.114-61.082-9.114-92.928 0-255.284 201.216-462.284 449.332-462.284 28.11 0 55.654 2.662 82.278 7.73 36.658-20.274 78.592-31.794 123.136-31.794 143.974 0 260.608 120.014 260.608 268.082 0 42.752-9.778 83.2-27.086 119.040zM747.47 221.9c-20.788-30.26-51.506-54.272-91.29-71.27-39.424-16.846-86.578-25.394-140.39-25.394-64.562 0-118.63 11.674-160.87 34.764-30.208 16.742-55.092 39.476-73.984 67.482-19.098 28.366-28.774 56.474-28.774 83.558 0 16.948 6.298 31.642 18.738 43.674 12.338 11.878 28.108 17.972 46.9 17.972 15.412 0 28.774-4.762 39.578-14.13 10.342-9.062 19.2-22.426 26.318-39.578 7.988-18.79 16.64-34.61 25.806-47.104 8.806-11.98 21.504-22.118 37.682-30.004 16.282-7.884 38.246-11.93 65.28-11.93 37.12 0 67.584 8.14 90.47 24.27 22.426 15.77 33.28 34.61 33.28 57.702 0 18.226-5.682 32.614-17.356 43.826-12.236 11.726-28.416 20.89-47.974 27.188-20.428 6.554-48.178 13.62-82.432 20.992-46.644 10.292-86.272 22.476-117.76 36.25-32.154 14.028-58.164 33.586-77.158 58.060-19.302 24.782-29.082 56.012-29.082 92.672 0 34.918 10.24 66.406 30.514 93.542 20.122 26.932 49.408 47.924 87.194 62.31 37.324 14.182 81.714 21.402 131.892 21.402 40.14 0 75.418-4.812 104.858-14.182 29.594-9.524 54.578-22.322 74.188-38.092 19.764-15.924 34.458-32.922 43.726-50.482 9.318-17.87 14.028-35.584 14.028-52.736 0-16.538-6.196-31.538-18.432-44.646-12.288-13.158-27.852-19.814-46.13-19.814-16.59 0-29.644 4.198-38.706 12.39-8.398 7.628-17.152 19.61-26.778 36.71-11.212 21.966-24.78 39.218-40.294 51.354-15.154 11.826-40.346 17.87-75.058 17.87-32.204 0-58.418-6.656-77.876-19.814-18.79-12.698-27.854-27.188-27.854-44.34 0-10.548 2.918-19.354 8.96-26.88 6.4-8.038 15.36-15.104 26.778-20.942 11.776-6.092 23.962-10.956 36.146-14.438 12.492-3.534 33.434-8.806 62.208-15.668 36.352-8.038 69.734-17.050 99.278-26.726 29.952-9.83 55.808-22.016 76.902-36.096 21.504-14.438 38.554-32.972 50.638-55.040 12.082-22.222 18.226-49.614 18.226-81.408 0.052-38.196-10.496-72.858-31.386-103.27z" />
<glyph unicode="&#xe037;" glyph-name="uniE037" d="M788.582 222.566l-134.452 385.844c-37.018 106.188-151.91 164.864-260.762 135.884l-101.17 196.3c-9.166 17.766-30.618 24.576-47.974 15.206-17.356-9.422-24.014-31.438-14.848-49.202l98.764-191.642c-78.694-52.224-119.604-151.194-93.696-244.378l109.568-394.036c30.822-110.746 157.696-167.168 285.236-128.154 125.9 44.186 197.172 165.734 159.334 274.176zM455.63 503.142c-37.324-12.238-77.362 8.806-89.344 47.156-11.98 38.298 8.602 79.308 45.978 91.546 37.376 12.288 77.414-8.806 89.394-47.104s-8.602-79.308-46.028-91.596z" />
<glyph unicode="&#xe038;" glyph-name="uniE038" d="M710.502 960h-397.004c-57.498 0-104.498-47.002-104.498-104.5v-815.002c0-57.446 47.002-104.5 104.498-104.5h397.004c57.498 0 104.5 47.052 104.5 104.5v815.002c0 57.498-47.002 104.5-104.5 104.5zM512-22.222c-40.346 0-73.114 23.398-73.114 52.274s32.768 52.274 73.114 52.274c40.398 0 73.114-23.398 73.114-52.274s-32.716-52.274-73.114-52.274zM731.392 134.554h-438.834v689.614h438.834v-689.614z" />
<glyph unicode="&#xe039;" glyph-name="uniE039" d="M1024-2.56c0 0-1.996 193.894-13.876 213.966-17.664 29.952-58.674 50.482-134.86 82.33-75.93 31.744-100.25 58.572-100.25 115.866 0 34.458 23.194 23.194 33.382 86.222 4.198 26.164 24.678 0.462 28.62 60.108 0 23.808-11.162 29.748-11.162 29.748s5.632 35.226 7.884 62.31c2.764 33.792-17.050 120.986-122.47 120.986s-125.134-87.246-122.418-120.986c2.202-27.084 7.834-62.31 7.834-62.31s-11.162-5.94-11.162-29.748c3.942-59.698 24.422-33.996 28.672-60.108 10.138-63.028 33.332-51.764 33.332-86.222 0-38.962-11.264-63.846-42.342-85.71 165.888-83.046 188.16-99.994 188.16-174.234v-152.218h230.656zM523.47 264.96c-101.324 42.29-133.632 78.028-133.632 154.47 0 45.876 30.926 30.926 44.492 114.996 5.582 34.868 32.974 0.562 38.144 80.128 0 31.744-14.9 39.628-14.9 39.628s7.578 46.95 10.548 83.098c3.686 44.954-22.734 161.28-163.276 161.28s-166.912-116.274-163.226-161.28c2.97-36.148 10.496-83.098 10.496-83.098s-14.848-7.884-14.848-39.628c5.274-79.616 32.564-45.312 38.194-80.128 13.568-84.070 44.492-69.070 44.492-114.996 0-76.442-32.41-112.178-133.632-154.47-30.874-12.902-86.322-32.922-86.322-80.948v-186.572h711.374c0 0 0 110.336 0 139.826 0 43.878-86.374 85.198-187.904 127.692z" />
<glyph unicode="&#xe03a;" glyph-name="uniE03A" d="M633.702 220.262c-127.538 45.978-168.294 84.788-168.294 167.884 0 49.87 38.964 33.586 56.064 124.928 7.116 37.888 41.524 0.614 48.026 87.092 0 34.458-18.74 43.058-18.74 43.058s9.574 51.046 13.26 90.266c4.608 48.946-28.57 175.308-205.62 175.308s-210.228-126.362-205.618-175.308c3.738-39.27 13.312-90.266 13.312-90.266s-18.79-8.55-18.79-43.058c6.604-86.476 41.010-49.202 48.026-87.092 17.152-91.342 56.116-75.058 56.116-124.928 0-83.098-40.806-121.908-168.346-167.884-15.36-5.478-51.968-14.080-83.098-27.546v-205.518h819.2c0 0 0 75.726 0 107.776s-57.498 79.154-185.498 125.286zM870.4 499.2v153.6h-102.4v-153.6h-153.6v-102.4h153.6v-153.6h102.4v153.6h153.6v102.4h-153.6z" />
<glyph unicode="&#xe03b;" glyph-name="uniE03B" d="M758.784 220.262c-126.208 45.978-166.554 84.788-166.554 167.884 0 49.87 38.554 33.586 55.45 124.928 7.014 37.888 41.062 0.614 47.616 87.092 0 34.458-18.586 43.058-18.586 43.058s9.472 51.046 13.158 90.266c4.506 48.946-28.262 175.308-203.468 175.308-175.156 0-208.026-126.362-203.418-175.308 3.686-39.22 13.158-90.266 13.158-90.266s-18.638-8.55-18.638-43.058c6.502-86.476 40.55-49.202 47.564-87.092 16.948-91.342 55.5-75.058 55.5-124.928 0-83.098-40.346-121.908-166.554-167.884-126.668-46.080-208.896-93.134-208.896-125.236 0-32.052 0-107.776 0-107.776h962.56c0 0 0 75.726 0 107.776 0 32.052-82.278 79.104-208.896 125.236z" />
<glyph unicode="&#xe600;" glyph-name="uniE600" d="M69.144 420.572q0 22.856 16 38.856l77.714 77.714q16 16 38.856 16t38.856-16l168-168.57 374.858 375.428q16 16 38.856 16t38.856-16l77.714-77.714q16-16 16-38.856t-16-38.856l-491.428-491.428q-16-16-38.856-16t-38.856 16l-284.572 284.572q-16 16-16 38.856z" />
<glyph unicode="&#xe601;" glyph-name="uniE601" d="M0 403.59c0-46.398 4.34-88.38 13.022-125.934 8.678-37.554 20.696-70.184 36.052-97.892s34.884-52.078 58.586-73.108c23.7-21.032 49.406-38.224 77.112-51.576s59.336-24.198 94.888-32.546c35.552-8.346 71.856-14.188 108.91-17.528 37.054-3.338 77.78-5.006 122.178-5.006 44.732 0 85.628 1.668 122.68 5.006 37.054 3.34 73.442 9.184 109.16 17.528s67.512 19.192 95.388 32.546c27.876 13.354 53.746 30.544 77.616 51.576 23.87 21.030 43.566 45.404 59.086 73.108s27.622 60.336 36.302 97.892c8.68 37.556 13.020 79.536 13.020 125.934 0 82.788-27.708 154.394-83.118 214.816 3.004 8.012 5.758 17.108 8.262 27.29s4.84 24.702 7.010 43.564c2.17 18.862 1.336 40.642-2.504 65.346-3.838 24.704-10.932 49.906-21.284 75.612l-7.51 1.502c-5.342 1-14.106 0.75-26.29-0.752s-26.372-4.506-42.562-9.014c-16.19-4.506-37.054-13.186-62.592-26.038s-52.494-28.958-80.87-48.32c-48.736 13.352-115.668 20.030-200.792 20.030-84.792 0-151.556-6.678-200.294-20.030-28.376 19.362-55.5 35.468-81.37 48.32s-46.484 21.532-61.84 26.038c-15.354 4.508-29.71 7.428-43.062 8.764-13.354 1.336-21.784 1.752-25.288 1.252s-6.26-1.086-8.262-1.752c-10.348-25.706-17.442-50.906-21.28-75.612-3.838-24.704-4.674-46.486-2.504-65.346s4.508-33.382 7.010-43.564c2.504-10.182 5.258-19.278 8.262-27.29-55.414-60.422-83.122-132.026-83.122-214.816zM125.684 277.906c0 48.070 21.866 92.136 65.596 132.194 13.018 12.020 28.208 21.114 45.566 27.292s36.97 9.68 58.836 10.516c21.866 0.834 42.812 0.668 62.842-0.502s44.732-2.754 74.108-4.756c29.376-2.004 54.748-3.004 76.112-3.004s46.736 1 76.112 3.004c29.378 2.002 54.078 3.588 74.11 4.756 20.030 1.17 40.974 1.336 62.842 0.502s41.476-4.34 58.838-10.516c17.356-6.176 32.544-15.27 45.564-27.292 43.73-39.394 65.598-83.456 65.598-132.194 0-28.712-3.59-54.162-10.768-76.364s-16.358-40.81-27.542-55.83-26.704-27.79-46.568-38.306c-19.862-10.516-39.222-18.61-58.084-24.288-18.862-5.674-43.066-10.098-72.608-13.27-29.546-3.172-55.916-5.092-79.118-5.758s-52.66-1.002-88.378-1.002-65.178 0.334-88.378 1.002c-23.2 0.666-49.574 2.586-79.116 5.758s-53.744 7.596-72.606 13.27c-18.86 5.678-38.222 13.774-58.084 24.288s-35.386 23.282-46.568 38.306c-11.182 15.022-20.364 33.63-27.54 55.83-7.178 22.202-10.766 47.656-10.766 76.364zM640 288c0 53.020 28.654 96 64 96s64-42.98 64-96c0-53.020-28.654-96-64-96s-64 42.98-64 96zM256 288c0 53.020 28.654 96 64 96s64-42.98 64-96c0-53.020-28.654-96-64-96s-64 42.98-64 96z" />
<glyph unicode="&#xe602;" glyph-name="uniE602" d="M853.38 960h-682.692c-93.878 0-170.686-76.814-170.686-170.686v-682.626c0-93.938 76.808-170.688 170.686-170.688h682.692c93.87 0 170.62 76.75 170.62 170.688v682.628c-0.008 93.87-76.758 170.684-170.62 170.684zM731.716 135.312c-30.152-14.188-57.528-24.188-82-29.938-24.496-5.69-50.96-8.558-79.402-8.558-32.312 0-51.376 4.058-76.188 12.188-24.808 8.188-46 19.872-63.5 34.872-17.558 15.128-29.686 31.198-36.466 48.194-6.784 17.004-10.156 41.692-10.156 74.004v247.802h-95.996v100.066c27.744 9 59.936 21.934 79.684 38.75 19.84 16.872 35.718 37.058 47.684 60.684 12.004 23.566 20.25 53.626 24.752 90.066h100.5v-163.442h163.372v-126.126h-163.378v-181.188c0-41-0.528-64.626 3.816-76.25 4.312-11.56 15.126-23.56 26.902-30.5 15.656-9.376 33.504-14.060 53.626-14.060 35.786 0 71.378 11.626 106.75 34.876v-111.44z" />
<glyph unicode="&#xe603;" glyph-name="uniE603" horiz-adv-x="1152" d="M1088 58.834c0-45.5 26.028-84.908 64-104.184v-15.938c-10.626-1.454-21.472-2.224-32.5-2.224-68.008 0-129.348 28.528-172.722 74.264-26.222-6.982-54.002-10.752-82.778-10.752-159.058 0-288 114.616-288 256s128.942 256 288 256c159.058 0 288-114.616 288-256 0-55.348-19.764-106.592-53.356-148.466-6.824-14.824-10.644-31.312-10.644-48.7zM512 960c278.458 0 504.992-180.614 511.836-405.52-49.182 21.92-103.586 33.52-159.836 33.52-95.56 0-185.816-33.446-254.138-94.178-70.846-62.972-109.862-147.434-109.862-237.822 0-44.672 9.544-87.888 27.736-127.788-5.228-0.126-10.468-0.212-15.736-0.212-27.156 0-53.81 1.734-79.824 5.044-109.978-109.978-241.25-129.7-368.176-132.596v26.916c68.536 33.578 128 94.74 128 164.636 0 9.754-0.758 19.33-2.164 28.696-115.796 76.264-189.836 192.754-189.836 323.304 0 229.75 229.23 416 512 416z" />
<glyph unicode="&#xe604;" glyph-name="uniE604" d="M576.032 512l-0.002-234.184c0-59.418-0.77-93.656 5.53-110.5 6.25-16.754 21.918-34.146 38.99-44.202 22.684-13.588 48.542-20.376 77.708-20.376 51.854 0 82.478 6.848 133.742 40.54v-153.944c-43.7-20.552-81.866-32.594-117.324-40.922-35.5-8.242-73.86-12.406-115.064-12.406-46.828 0-74.456 5.886-110.41 17.656-35.958 11.868-66.66 28.806-92.020 50.54-25.45 21.922-43.022 45.208-52.848 69.832-9.826 24.636-14.716 60.414-14.716 107.244v359.1h-137.426v145.006c40.208 13.042 85.164 31.788 113.78 56.152 28.754 24.45 51.766 53.706 69.106 87.944 17.392 34.146 29.348 77.712 35.872 130.516h165.084l-0.002-255.996h255.968v-192h-255.968z" />
<glyph unicode="&#xe605;" glyph-name="uniE605" d="M791.498 415.908c-1.294 129.682 105.758 191.876 110.542 194.966-60.152 88.020-153.85 100.078-187.242 101.472-79.742 8.074-155.596-46.948-196.066-46.948-40.368 0-102.818 45.754-168.952 44.552-86.916-1.292-167.058-50.538-211.812-128.38-90.304-156.698-23.126-388.84 64.89-515.926 43.008-62.204 94.292-132.076 161.626-129.58 64.842 2.588 89.362 41.958 167.756 41.958s100.428-41.958 169.050-40.67c69.774 1.296 113.982 63.398 156.692 125.796 49.39 72.168 69.726 142.038 70.924 145.626-1.548 0.706-136.060 52.236-137.408 207.134zM662.562 796.478c35.738 43.358 59.86 103.512 53.28 163.522-51.478-2.096-113.878-34.29-150.81-77.55-33.142-38.376-62.148-99.626-54.374-158.436 57.466-4.484 116.128 29.204 151.904 72.464z" />
<glyph unicode="&#xe606;" glyph-name="uniE606" d="M513 192c-132.312 0-261.674 19.372-386.1 57.698l20.248 60.742c117.904-36.158 240.476-54.44 365.852-54.44 16.344 0 32.638 0.328 48.882 0.948 4.226 77.56 14.118 127.052 14.118 127.052s-64 0-192 0c0 175.010 59.818 330.054 124.93 447h-508.93v-766h566.176c-4.672 45.684-6.304 88.86-6.154 127.84-15.632-0.548-31.306-0.84-47.022-0.84zM192 704h64v-128h-64v128zM1024 831h-427.13c-1.948-3.196-3.894-6.414-5.84-9.686-38.416-64.572-68.936-130.758-90.716-196.72-18.206-55.132-30.302-110.232-36.172-164.594h204.858l-18.458-90.834c-0.314-1.616-8.17-42.844-12.2-106.942 81.864 8.126 162.222 24.206 240.514 48.214l20.248-60.742c-85.566-26.356-173.464-43.748-263.052-52.042-0.036-4.376-0.056-8.79-0.042-13.28 0.124-40.63 2.346-80.57 6.602-119.376h381.388v766.002zM832 576h-64v128h64v-128zM587.264-64h78.168c-5.46 21.814-10.188 44.192-14.138 67.086-3.494 20.252-6.382 40.92-8.686 61.914h-76.432c4.232-41.378 10.95-84.802 21.088-129zM688.448 960h-96.396c-25.75-34.87-54.932-78.37-83.12-129h87.938c33.674 55.312 67.164 99.402 91.578 129z" />
<glyph unicode="&#xe922;" glyph-name="file-text" d="M864 960h-768c-52.8 0-96-43.2-96-96v-832c0-52.8 43.2-96 96-96h768c52.8 0 96 43.2 96 96v832c0 52.8-43.2 96-96 96zM832 64h-704v768h704v-768zM256 512h448v-64h-448zM256 384h448v-64h-448zM256 256h448v-64h-448zM256 640h448v-64h-448z" />
<glyph unicode="&#xe923;" glyph-name="profile" d="M864 960h-768c-52.8 0-96-43.2-96-96v-832c0-52.8 43.2-96 96-96h768c52.8 0 96 43.2 96 96v832c0 52.8-43.2 96-96 96zM832 64h-704v768h704v-768zM256 384h448v-64h-448zM256 256h448v-64h-448zM320 672c0 53.019 42.981 96 96 96s96-42.981 96-96c0-53.019-42.981-96-96-96s-96 42.981-96 96zM480 576h-128c-52.8 0-96-28.8-96-64v-64h320v64c0 35.2-43.2 64-96 64z" />
<glyph unicode="&#xe924;" glyph-name="file-empty" d="M917.806 730.924c-22.212 30.292-53.174 65.7-87.178 99.704s-69.412 64.964-99.704 87.178c-51.574 37.82-76.592 42.194-90.924 42.194h-496c-44.112 0-80-35.888-80-80v-864c0-44.112 35.888-80 80-80h736c44.112 0 80 35.888 80 80v624c0 14.332-4.372 39.35-42.194 90.924zM785.374 785.374c30.7-30.7 54.8-58.398 72.58-81.374h-153.954v153.946c22.984-17.78 50.678-41.878 81.374-72.572zM896 16c0-8.672-7.328-16-16-16h-736c-8.672 0-16 7.328-16 16v864c0 8.672 7.328 16 16 16 0 0 495.956 0.002 496 0v-224c0-17.672 14.326-32 32-32h224v-624z" />
<glyph unicode="&#xe925;" glyph-name="files-empty" d="M917.806 602.924c-22.21 30.292-53.174 65.7-87.178 99.704s-69.412 64.964-99.704 87.178c-51.574 37.82-76.592 42.194-90.924 42.194h-368c-44.114 0-80-35.888-80-80v-736c0-44.112 35.886-80 80-80h608c44.112 0 80 35.888 80 80v496c0 14.332-4.372 39.35-42.194 90.924zM785.374 657.374c30.7-30.7 54.8-58.398 72.58-81.374h-153.954v153.946c22.982-17.78 50.678-41.878 81.374-72.572v0zM896 16c0-8.672-7.328-16-16-16h-608c-8.672 0-16 7.328-16 16v736c0 8.672 7.328 16 16 16 0 0 367.956 0.002 368 0v-224c0-17.672 14.324-32 32-32h224v-496zM602.924 917.804c-51.574 37.822-76.592 42.196-90.924 42.196h-368c-44.112 0-80-35.888-80-80v-736c0-38.632 27.528-70.958 64-78.39v814.39c0 8.672 7.328 16 16 16h486.876c-9.646 7.92-19.028 15.26-27.952 21.804z" />
<glyph unicode="&#xe926;" glyph-name="file-text2" d="M917.806 730.924c-22.212 30.292-53.174 65.7-87.178 99.704s-69.412 64.964-99.704 87.178c-51.574 37.82-76.592 42.194-90.924 42.194h-496c-44.112 0-80-35.888-80-80v-864c0-44.112 35.888-80 80-80h736c44.112 0 80 35.888 80 80v624c0 14.332-4.372 39.35-42.194 90.924zM785.374 785.374c30.7-30.7 54.8-58.398 72.58-81.374h-153.954v153.946c22.984-17.78 50.678-41.878 81.374-72.572zM896 16c0-8.672-7.328-16-16-16h-736c-8.672 0-16 7.328-16 16v864c0 8.672 7.328 16 16 16 0 0 495.956 0.002 496 0v-224c0-17.672 14.326-32 32-32h224v-624zM736 128h-448c-17.672 0-32 14.326-32 32s14.328 32 32 32h448c17.674 0 32-14.326 32-32s-14.326-32-32-32zM736 256h-448c-17.672 0-32 14.326-32 32s14.328 32 32 32h448c17.674 0 32-14.326 32-32s-14.326-32-32-32zM736 384h-448c-17.672 0-32 14.326-32 32s14.328 32 32 32h448c17.674 0 32-14.326 32-32s-14.326-32-32-32z" />
</font>
</defs>
</svg>
